<?xml version="1.0" standalone="no"?>
<!DOCTYPE svg PUBLIC "-//W3C//DTD SVG 20010904//EN"
 "http://www.w3.org/TR/2001/REC-SVG-20010904/DTD/svg10.dtd">
<svg version="1.0" xmlns="http://www.w3.org/2000/svg"
 width="512.000000pt" height="512.000000pt" viewBox="0 0 512.000000 512.000000"
 preserveAspectRatio="xMidYMid meet">
<metadata>
Created by potrace 1.14, written by Peter Selinger 2001-2017
</metadata>
<g transform="translate(0.000000,512.000000) scale(0.100000,-0.100000)"
fill="#000000" stroke="none">
<path d="M2260 4854 c0 -17 78 -186 114 -248 42 -71 144 -183 206 -227 121
-86 454 -259 840 -435 431 -197 670 -324 840 -446 300 -215 475 -453 549 -743
18 -73 23 -99 36 -197 6 -42 6 -292 1 -338 -3 -19 -7 -60 -10 -91 -3 -31 -11
-80 -16 -110 -6 -30 -13 -67 -16 -84 -9 -52 -66 -250 -75 -259 -5 -6 -9 -18
-9 -28 0 -10 -4 -26 -9 -36 -6 -9 -27 -55 -47 -102 -53 -122 -160 -310 -221
-390 -113 -148 -247 -294 -353 -385 -75 -63 -223 -172 -275 -201 -11 -6 -48
-28 -83 -47 -78 -45 -214 -110 -265 -127 -21 -6 -36 -14 -34 -17 7 -6 122 40
237 95 85 41 287 156 300 171 3 3 28 22 55 41 284 196 551 511 720 850 121
241 177 430 230 765 10 65 14 425 5 490 -5 33 -11 84 -15 112 -3 29 -17 103
-30 165 -131 625 -552 1199 -1115 1520 -212 120 -492 227 -691 263 -184 34
-290 42 -571 44 -164 1 -298 -1 -298 -5z"/>
<path d="M1680 4740 c-13 -8 -12 -10 3 -10 9 0 17 5 17 10 0 12 -1 12 -20 0z"/>
<path d="M1570 4698 c-124 -52 -290 -140 -395 -211 -117 -78 -146 -98 -161
-112 -6 -5 -31 -26 -55 -45 -56 -44 -241 -228 -299 -298 -292 -349 -477 -788
-529 -1257 -20 -173 -3 -517 34 -695 3 -14 7 -34 9 -45 12 -59 67 -246 85
-290 5 -11 25 -60 46 -110 137 -332 391 -672 665 -890 41 -33 77 -62 80 -65
10 -11 186 -127 230 -152 289 -166 575 -257 945 -304 52 -6 625 -14 625 -8 0
15 -55 145 -85 200 -75 139 -155 228 -282 310 -46 30 -85 54 -87 54 -3 0 -29
14 -58 31 -52 32 -463 239 -472 239 -2 0 -49 21 -103 46 -54 26 -118 56 -143
67 -617 279 -930 489 -1128 755 -159 215 -230 445 -234 757 -1 93 7 229 18
300 21 141 58 300 89 388 9 23 23 65 33 92 27 81 156 333 217 425 180 268 405
489 671 656 74 46 244 133 354 182 59 26 -2 8 -70 -20z"/>
<path d="M886 3293 c17 -88 36 -143 79 -218 42 -75 153 -189 242 -248 71 -47
213 -117 238 -117 7 0 17 -4 20 -10 3 -5 16 -10 28 -10 12 0 29 -5 37 -10 40
-27 -244 45 -335 85 l-60 27 50 -52 c88 -90 252 -187 435 -256 112 -43 75 -43
-70 1 -63 19 -116 32 -119 30 -5 -6 -8 -4 64 -51 149 -98 266 -145 430 -174
l110 -19 -75 3 c-41 2 -84 7 -94 12 -14 5 -17 4 -12 -5 12 -19 134 -77 221
-104 90 -28 202 -53 285 -62 30 -3 56 -8 58 -10 2 -2 -34 -49 -82 -103 l-85
-100 42 -28 c23 -16 63 -45 88 -66 43 -35 47 -36 73 -22 l28 14 -15 -24 c-15
-22 -14 -27 5 -62 11 -22 26 -46 33 -54 7 -8 30 -59 51 -113 31 -78 40 -93 45
-75 15 57 65 168 97 216 30 46 33 56 24 78 -13 26 -10 29 18 14 15 -8 28 -2
67 31 26 22 65 50 86 61 20 12 37 24 37 28 0 3 -38 50 -85 105 -46 54 -83 100
-82 101 1 1 27 5 58 8 31 4 67 9 80 11 13 3 40 8 59 11 115 20 370 120 370
145 0 6 -5 7 -10 4 -16 -10 -161 -22 -152 -14 4 5 30 11 57 14 97 12 221 48
301 86 84 41 239 137 232 144 -4 4 -41 -5 -176 -45 -86 -25 -122 -21 -42 5
180 58 451 223 491 297 8 14 1 13 -39 -7 -26 -13 -66 -29 -87 -34 -153 -39
-195 -49 -230 -54 -27 -4 -15 3 40 22 303 107 504 291 568 521 16 61 30 140
23 140 -2 0 -33 -30 -68 -66 -134 -141 -302 -267 -457 -344 -152 -76 -262
-106 -456 -125 -280 -27 -570 -192 -710 -403 -15 -23 -30 -42 -34 -42 -3 0
-24 28 -46 61 -67 101 -211 226 -332 287 -23 12 -77 33 -120 48 -102 34 -120
38 -263 54 -150 17 -256 46 -385 105 -53 25 -193 105 -220 127 -5 4 -46 37
-90 72 -44 35 -116 100 -160 145 -44 44 -83 81 -86 81 -3 0 0 -30 7 -67z"/>
<path d="M2505 2926 c-10 -15 -27 -26 -39 -26 -22 0 -66 -33 -66 -50 0 -5 19
-3 41 5 49 18 59 18 59 5 0 -5 -12 -10 -26 -10 l-26 0 32 -30 c38 -36 39 -77
2 -128 -13 -18 -27 -46 -32 -62 -7 -23 -4 -32 17 -52 14 -12 45 -51 70 -85
l44 -63 36 48 c20 26 53 64 74 84 43 41 47 60 23 116 -9 21 -17 75 -19 126 -3
79 -6 91 -29 114 -20 20 -38 27 -85 30 -55 4 -60 2 -76 -22z"/>
<path d="M3365 320 c-3 -6 1 -7 9 -4 18 7 21 14 7 14 -6 0 -13 -4 -16 -10z"/>
</g>
</svg>
