<?xml version="1.0" encoding="UTF-8" standalone="no"?>
<!-- Created with Inkscape (http://www.inkscape.org/) -->

<svg
   width="350mm"
   height="350mm"
   viewBox="0 0 350 350"
   version="1.1"
   id="svg13241"
   inkscape:version="1.1.2 (b8e25be833, 2022-02-05)"
   sodipodi:docname="REGIOS-eagle.svg"
   inkscape:export-filename="I:\Hobby\REGIOS\centered.png"
   inkscape:export-xdpi="254"
   inkscape:export-ydpi="254"
   xmlns:inkscape="http://www.inkscape.org/namespaces/inkscape"
   xmlns:sodipodi="http://sodipodi.sourceforge.net/DTD/sodipodi-0.dtd"
   xmlns="http://www.w3.org/2000/svg"
   xmlns:svg="http://www.w3.org/2000/svg">
  <sodipodi:namedview
     id="namedview13243"
     pagecolor="#505050"
     bordercolor="#eeeeee"
     borderopacity="1"
     inkscape:pageshadow="0"
     inkscape:pageopacity="0"
     inkscape:pagecheckerboard="0"
     inkscape:document-units="mm"
     showgrid="false"
     inkscape:zoom="0.5"
     inkscape:cx="479"
     inkscape:cy="844"
     inkscape:window-width="1920"
     inkscape:window-height="1027"
     inkscape:window-x="-1928"
     inkscape:window-y="-8"
     inkscape:window-maximized="1"
     inkscape:current-layer="layer1"
     inkscape:snap-global="false" />
  <defs
     id="defs13238">
    <rect
       x="16"
       y="158"
       width="1270"
       height="1248"
       id="rect10719" />
    <rect
       x="-2216"
       y="3494"
       width="860"
       height="860"
       id="rect44342" />
    <rect
       x="1063.4886"
       y="879.64087"
       width="786.30273"
       height="622.25397"
       id="rect54523" />
    <inkscape:path-effect
       effect="mirror_symmetry"
       start_point="238.55185,68.370885"
       end_point="238.55185,95.127633"
       center_point="238.55185,81.749259"
       id="path-effect1719-3-2-6"
       is_visible="true"
       mode="free"
       discard_orig_path="false"
       fuse_paths="false"
       oposite_fuse="false"
       lpeversion="0"
       split_items="false"
       split_open="false" />
    <inkscape:path-effect
       effect="mirror_symmetry"
       start_point="238.54245,53.381157"
       end_point="238.54245,89.353177"
       center_point="238.54245,71.367167"
       id="path-effect1721-1-7-8"
       is_visible="true"
       mode="free"
       discard_orig_path="false"
       fuse_paths="false"
       oposite_fuse="false"
       lpeversion="0"
       split_items="false"
       split_open="false" />
    <inkscape:path-effect
       effect="mirror_symmetry"
       start_point="238.52259,25.404846"
       end_point="238.52259,86.682084"
       center_point="238.52259,56.043465"
       id="path-effect1723-9-9-5"
       is_visible="true"
       mode="free"
       discard_orig_path="false"
       fuse_paths="false"
       oposite_fuse="false"
       lpeversion="0"
       split_items="false"
       split_open="false" />
    <inkscape:path-effect
       effect="mirror_symmetry"
       start_point="238.55185,68.370885"
       end_point="238.55185,95.127633"
       center_point="238.55185,81.749259"
       id="path-effect1719-3-2-6-9"
       is_visible="true"
       mode="free"
       discard_orig_path="false"
       fuse_paths="false"
       oposite_fuse="false"
       lpeversion="0"
       split_items="false"
       split_open="false" />
    <inkscape:path-effect
       effect="mirror_symmetry"
       start_point="238.54245,53.381157"
       end_point="238.54245,89.353177"
       center_point="238.54245,71.367167"
       id="path-effect1721-1-7-8-6"
       is_visible="true"
       mode="free"
       discard_orig_path="false"
       fuse_paths="false"
       oposite_fuse="false"
       lpeversion="0"
       split_items="false"
       split_open="false" />
    <inkscape:path-effect
       effect="mirror_symmetry"
       start_point="238.52259,25.404846"
       end_point="238.52259,86.682084"
       center_point="238.52259,56.043465"
       id="path-effect1723-9-9-5-2"
       is_visible="true"
       mode="free"
       discard_orig_path="false"
       fuse_paths="false"
       oposite_fuse="false"
       lpeversion="0"
       split_items="false"
       split_open="false" />
  </defs>
  <g
     inkscape:label="Layer 1"
     inkscape:groupmode="layer"
     id="layer1">
    <g
       transform="matrix(0.38877665,0,0,0.38877665,73.320019,76.927402)"
       id="g970-7-0"
       style="fill:#ffffff;fill-opacity:1;stroke:none;stroke-opacity:1" />
    <text
       xml:space="preserve"
       style="font-style:normal;font-weight:normal;font-size:10.5833px;line-height:1.25;font-family:sans-serif;fill:#000000;fill-opacity:1;stroke:none;stroke-width:0.264583"
       x="213.65103"
       y="52.784374"
       id="text63440"><tspan
         sodipodi:role="line"
         id="tspan63438"
         style="stroke-width:0.264583"
         x="213.65103"
         y="52.784374" /></text>
    <text
       xml:space="preserve"
       style="font-style:normal;font-weight:normal;font-size:10.5833px;line-height:1.25;font-family:sans-serif;fill:#000000;fill-opacity:1;stroke:none;stroke-width:0.264583"
       x="268.09805"
       y="77.080536"
       id="text69866"><tspan
         sodipodi:role="line"
         id="tspan69864"
         style="stroke-width:0.264583"
         x="268.09805"
         y="77.080536" /><tspan
         sodipodi:role="line"
         style="stroke-width:0.264583"
         id="tspan69868"
         x="268.09805"
         y="90.309662" /></text>
    <text
       xml:space="preserve"
       style="font-style:normal;font-weight:normal;font-size:10.5833px;line-height:1.25;font-family:sans-serif;fill:#000000;fill-opacity:1;stroke:none;stroke-width:0.264583"
       x="-58.745842"
       y="708.13062"
       id="text6039"><tspan
         sodipodi:role="line"
         id="tspan6037"
         style="stroke-width:0.264583"
         x="-58.745842"
         y="708.13062" /></text>
    <text
       xml:space="preserve"
       transform="scale(0.26458333)"
       id="text54521"
       style="font-style:normal;font-weight:normal;font-size:40px;line-height:1.25;font-family:sans-serif;white-space:pre;shape-inside:url(#rect54523);fill:#000000;fill-opacity:1;stroke:none" />
    <text
       xml:space="preserve"
       transform="scale(0.26458333)"
       id="text44340"
       style="font-style:normal;font-weight:normal;font-size:40px;line-height:1.25;font-family:sans-serif;white-space:pre;shape-inside:url(#rect44342);fill:#000000;fill-opacity:1;stroke:none" />
    <text
       xml:space="preserve"
       style="font-style:normal;font-weight:normal;font-size:10.5833px;line-height:1.25;font-family:sans-serif;fill:#000000;fill-opacity:1;stroke:none;stroke-width:0.264583"
       x="168.37981"
       y="362.952"
       id="text5410"><tspan
         sodipodi:role="line"
         id="tspan5408"
         style="stroke-width:0.264583"
         x="168.37981"
         y="362.952" /></text>
    <g
       id="g2012"
       transform="translate(88.745836,104.35625)"
       style="fill:#ffffff;fill-opacity:1">
      <g
         id="g973-0-3-4-8-4-1-3-5"
         transform="matrix(1.864039,0,0,1.864039,-32.526476,-47.508441)"
         style="fill:#ffffff;fill-opacity:1;stroke:#040000;stroke-opacity:1">
        <path
           style="fill:#ffffff;fill-opacity:1;stroke:none;stroke-width:0.265;stroke-linecap:butt;stroke-linejoin:miter;stroke-miterlimit:4;stroke-dasharray:none;stroke-opacity:1"
           d="m 66.67522,59.252508 c 0,0 0.05265,-1.258811 -0.525355,-1.911194 -0.423906,-0.776754 -0.05336,-2.883384 -0.365734,-4.053969 -0.160892,-0.602929 -0.299897,-0.756949 -0.86961,-1.133867 -0.830121,-0.549203 -2.136636,-0.402793 -2.639288,-0.300681 -0.357984,0.07272 -0.668173,0.868627 -0.668173,0.868627 0,0 -0.594119,0.109865 -1.099766,0.253604 -0.147932,0.06344 -1.083048,0.379926 -0.836372,1.234138 0,0 0.255784,-0.334796 0.983212,-0.563649 1.514675,-0.31816 1.16841,0.248599 1.16841,0.248599 0,0 -0.473,-0.0779 -0.929229,0.04458 -0.366915,0.09155 -0.535332,0.223839 -0.535332,0.223839 0.061,-0.0084 1.537109,0.0055 1.582759,1.539176 0.02214,0.743861 -0.141602,1.222604 -0.636787,1.696574 -0.529287,0.498715 -0.802542,1.50347 -0.748764,1.866342 -0.02835,0.03544 1.571061,1.235017 2.92431,3.669722 1.313744,-2.144051 3.081049,-3.580105 3.195719,-3.681841 z"
           id="path871-4-6-7-3-0-1-26-4"
           inkscape:connector-curvature="0"
           sodipodi:nodetypes="ccssscccccccscccc" />
      </g>
      <path
         sodipodi:nodetypes="cscc"
         inkscape:connector-curvature="0"
         id="path873-6-9-6-2-8-6-8-5"
         d="m 84.018696,50.582733 c 0,0 0.321377,0.363992 0.861628,0.346166 0.57526,-0.01732 1.00018,-0.338774 1.00018,-0.338774 z"
         style="fill:#ffffff;fill-opacity:1;stroke:none;stroke-width:0.493194px;stroke-linecap:butt;stroke-linejoin:miter;stroke-opacity:1" />
      <path
         style="fill:#ffffff;fill-opacity:1;stroke:none;stroke-width:0.493194px;stroke-linecap:butt;stroke-linejoin:miter;stroke-opacity:1"
         d="m 81.072005,97.780767 c -1.04693,-1.32312 1.118107,-3.32109 1.118107,-3.32109 0,0 -2.471586,1.8194 -3.104682,1.08937 -1.237976,-1.42745 -3.262083,-2.9167 -6.436232,-4.79447 l 7.091377,-8.33873 c -14.450943,-0.75274 -25.054673,-7.44203 -22.682095,-6.95875 4.80221,1.0916 9.651603,0.74539 6.325464,0.41097 -4.816127,-1.2328 -10.138757,-0.0534 -23.001081,-9.04265 -2.161268,-1.581609 2.380841,0.0839 6.978176,1.47316 3.709007,1.12087 4.184245,0.6953 2.607933,0.14613 C 32.220375,62.264761 27.304705,54.167203 29.042966,55.507154 c 3.603071,2.77741 21.840126,6.138338 15.119222,4.274136 -9.09713,-2.523307 -24.967652,-9.981026 -26.063812,-27.305874 -0.05088,-0.805095 14.985108,19.652066 37.440631,21.337925 22.455479,1.685856 30.161517,18.283896 30.204737,18.275806 0.0435,0.009 8.7539,-16.584122 31.210596,-18.254194 22.45667,-1.670025 37.50703,-22.11662 37.45561,-21.311526 -1.10838,17.324023 -16.98419,24.770607 -26.08298,27.287478 -6.72228,1.859504 11.51715,-1.48864 15.12216,-4.263479 1.73921,-1.338736 -3.18219,6.755387 -20.93508,12.922811 -1.57675,0.54773 -1.10177,0.97366 2.60801,-0.14481 4.59834,-1.38605 9.14157,-3.048337 6.97923,-1.46824 -12.86864,8.98014 -18.19045,7.79706 -23.00745,9.02646 -3.32631,0.33225 1.52278,0.68202 6.32576,-0.40618 2.37294,-0.48168 -8.23553,6.20013 -22.686986,6.94273 l 7.0855,8.34366 c -3.17545,1.8756 -5.20065,3.36341 -6.43958,4.78999 -0.63361,0.72956 -3.10395,-1.0916 -3.10395,-1.0916 0,0 2.16364,1.99955 1.1158,3.32193 -3.07349,3.415603 -5.16312,11.051053 -5.16312,11.051053 0,0 -2.084191,-7.63689 -5.155259,-11.054713 z"
         id="path7013-6-8-4-7-7-61-0-6-6-0-0-1-6"
         inkscape:connector-curvature="0"
         sodipodi:nodetypes="ccccccccscsssscscsccscccccscccc" />
    </g>
    <text
       xml:space="preserve"
       style="font-weight:500;font-size:3.52777px;line-height:1.25;font-family:Montserrat;-inkscape-font-specification:'Montserrat Medium';stroke-width:0.264583"
       x="44.450001"
       y="158.75"
       id="text1398"><tspan
         sodipodi:role="line"
         id="tspan1396"
         style="stroke-width:0.264583"
         x="44.450001"
         y="158.75"></tspan></text>
    <text
       xml:space="preserve"
       style="font-style:normal;font-weight:normal;font-size:44.0972px;line-height:1.25;font-family:sans-serif;fill:#ffffff;fill-opacity:1;stroke:none;stroke-width:0.58463"
       x="174.29443"
       y="337.63229"
       id="text94085-7-6-2-1"><tspan
         sodipodi:role="line"
         style="font-style:normal;font-variant:normal;font-weight:bold;font-stretch:normal;font-size:44.0972px;font-family:Rubik;-inkscape-font-specification:'Rubik Bold';text-align:center;text-anchor:middle;fill:#ffffff;fill-opacity:1;stroke-width:0.58463"
         x="174.29443"
         y="337.63229"
         id="tspan12505">REGIOS</tspan></text>
    <text
       xml:space="preserve"
       transform="scale(0.26458333)"
       id="text10717"
       style="line-height:1.25;font-family:Montserrat;font-size:13.33333333px;-inkscape-font-specification:'Montserrat Medium';font-weight:500;white-space:pre;shape-inside:url(#rect10719)" />
  </g>
</svg>
